<?xml version="1.0" encoding="UTF-8" standalone="no"?><svg xmlns="http://www.w3.org/2000/svg" xmlns:xlink="http://www.w3.org/1999/xlink" contentScriptType="application/ecmascript" contentStyleType="text/css" height="159px" preserveAspectRatio="none" style="width:809px;height:159px;" version="1.1" viewBox="0 0 809 159" width="809px" zoomAndPan="magnify"><defs><filter height="300%" id="fdmr811h3egu6" width="300%" x="-1" y="-1"><feGaussianBlur result="blurOut" stdDeviation="2.0"/><feColorMatrix in="blurOut" result="blurOut2" type="matrix" values="0 0 0 0 0 0 0 0 0 0 0 0 0 0 0 0 0 0 .4 0"/><feOffset dx="4.0" dy="4.0" in="blurOut2" result="blurOut3"/><feBlend in="SourceGraphic" in2="blurOut3" mode="normal"/></filter></defs><g><!--cluster de.thro.inf.prg3.a09.resource--><polygon fill="#FFFFFF" filter="url(#fdmr811h3egu6)" points="14,16,221,16,228,41.0679,787,41.0679,787,147,14,147,14,16" style="stroke: #000000; stroke-width: 1.5;"/><line style="stroke: #000000; stroke-width: 1.5;" x1="14" x2="228" y1="41.0679" y2="41.0679"/><text fill="#000000" font-family="sans-serif" font-size="14" font-weight="bold" lengthAdjust="spacingAndGlyphs" textLength="201" x="18" y="32.9659">de.thro.inf.prg3.a09.resource</text><!--class FxImageLoaderAdapter--><rect fill="#FEFECE" filter="url(#fdmr811h3egu6)" height="92.9457" id="FxImageLoaderAdapter" style="stroke: #A80036; stroke-width: 1.5;" width="358" x="22" y="46.5"/><ellipse cx="130.75" cy="62.5" fill="#ADD1B2" rx="11" ry="11" style="stroke: #A80036; stroke-width: 1.0;"/><path d="M130.4375,58.8281 Q128.9531,58.8281 128.1719,59.9375 Q127.3906,61.0469 127.3906,62.9688 Q127.3906,64.9063 128.1094,65.9688 Q128.8281,67.0313 130.4375,67.0313 Q131.1719,67.0313 131.9063,66.8594 Q132.6563,66.6875 133.5313,66.375 L133.5313,68.5469 Q132.7188,68.8594 131.9375,69.0156 Q131.1563,69.1719 130.1875,69.1719 Q128.3281,69.1719 127.1094,68.4063 Q125.8906,67.625 125.3125,66.2188 Q124.7344,64.8125 124.7344,62.9531 Q124.7344,61.1094 125.3906,59.7031 Q126.0625,58.2969 127.3281,57.5 Q128.5938,56.6875 130.4375,56.6875 Q131.3281,56.6875 132.2344,56.9219 Q133.1563,57.1563 133.9844,57.5469 L133.1563,59.6406 Q132.4688,59.3125 131.7813,59.0781 Q131.0938,58.8281 130.4375,58.8281 Z "/><text fill="#000000" font-family="sans-serif" font-size="12" lengthAdjust="spacingAndGlyphs" textLength="132" x="151.25" y="67.156">FxImageLoaderAdapter</text><line style="stroke: #A80036; stroke-width: 1.5;" x1="23" x2="379" y1="78.5" y2="78.5"/><rect fill="none" height="6" style="stroke: #C82930; stroke-width: 1.0;" width="6" x="30" y="88.4909"/><text fill="#000000" font-family="sans-serif" font-size="11" lengthAdjust="spacingAndGlyphs" textLength="219" x="42" y="94.2589">resourceLoader: ResourceLoader&lt;Image&gt;</text><line style="stroke: #A80036; stroke-width: 1.5;" x1="23" x2="379" y1="101.4819" y2="101.4819"/><ellipse cx="33" cy="114.4728" fill="#84BE84" rx="3" ry="3" style="stroke: #038048; stroke-width: 1.0;"/><text fill="#000000" font-family="sans-serif" font-size="11" lengthAdjust="spacingAndGlyphs" textLength="170" x="42" y="117.2408">loadImage(resourcePath: String)</text><ellipse cx="33" cy="129.4547" fill="#84BE84" rx="3" ry="3" style="stroke: #038048; stroke-width: 1.0;"/><text fill="#000000" font-family="sans-serif" font-size="11" lengthAdjust="spacingAndGlyphs" textLength="332" x="42" y="132.2227">loadImage(resourceContext: ClassLoader, resourcePath: String)</text><!--class ResourceLoader--><rect fill="#FEFECE" filter="url(#fdmr811h3egu6)" height="62.9819" id="ResourceLoader" style="stroke: #A80036; stroke-width: 1.5;" width="339" x="440" y="61.5"/><ellipse cx="554.75" cy="77.5" fill="#ADD1B2" rx="11" ry="11" style="stroke: #A80036; stroke-width: 1.0;"/><path d="M554.4375,73.8281 Q552.9531,73.8281 552.1719,74.9375 Q551.3906,76.0469 551.3906,77.9688 Q551.3906,79.9063 552.1094,80.9688 Q552.8281,82.0313 554.4375,82.0313 Q555.1719,82.0313 555.9063,81.8594 Q556.6563,81.6875 557.5313,81.375 L557.5313,83.5469 Q556.7188,83.8594 555.9375,84.0156 Q555.1563,84.1719 554.1875,84.1719 Q552.3281,84.1719 551.1094,83.4063 Q549.8906,82.625 549.3125,81.2188 Q548.7344,79.8125 548.7344,77.9531 Q548.7344,76.1094 549.3906,74.7031 Q550.0625,73.2969 551.3281,72.5 Q552.5938,71.6875 554.4375,71.6875 Q555.3281,71.6875 556.2344,71.9219 Q557.1563,72.1563 557.9844,72.5469 L557.1563,74.6406 Q556.4688,74.3125 555.7813,74.0781 Q555.0938,73.8281 554.4375,73.8281 Z "/><text fill="#000000" font-family="sans-serif" font-size="12" lengthAdjust="spacingAndGlyphs" textLength="91" x="575.25" y="82.156">ResourceLoader</text><rect fill="#FFFFFF" height="18.3441" style="stroke: #000000; stroke-width: 1.0; stroke-dasharray: 2.0,2.0;" width="8" x="774" y="58.5"/><text fill="#000000" font-family="sans-serif" font-size="12" font-style="italic" lengthAdjust="spacingAndGlyphs" textLength="6" x="775" y="72.3281">T</text><line style="stroke: #A80036; stroke-width: 1.5;" x1="441" x2="778" y1="93.5" y2="93.5"/><line style="stroke: #A80036; stroke-width: 1.5;" x1="441" x2="778" y1="101.5" y2="101.5"/><ellipse cx="451" cy="114.4909" fill="#84BE84" rx="3" ry="3" style="stroke: #038048; stroke-width: 1.0;"/><text fill="#000000" font-family="sans-serif" font-size="11" lengthAdjust="spacingAndGlyphs" textLength="313" x="460" y="117.2589">loadResource(resourceContext: ClassLoader, path: String): T</text><!--link FxImageLoaderAdapter to ResourceLoader--><path d="M393.2251,93 C408.7978,93 424.464,93 439.86,93 " fill="none" id="FxImageLoaderAdapter-ResourceLoader" style="stroke: #A80036; stroke-width: 1.0;"/><polygon fill="#A80036" points="380.174,93,386.174,97,392.174,93,386.174,89,380.174,93" style="stroke: #A80036; stroke-width: 1.0;"/><!--
@startuml

left to right direction

package de.thro.inf.prg3.a09.resource {

	class FxImageLoaderAdapter {
		- resourceLoader: ResourceLoader<Image>
		+ loadImage(resourcePath: String)
		+ loadImage(resourceContext: ClassLoader, resourcePath: String)
	}

	class ResourceLoader<T> {
		+ loadResource(resourceContext: ClassLoader, path: String): T
	}

	FxImageLoaderAdapter *- - ResourceLoader
}
@enduml

PlantUML version 1.2018.13(Mon Nov 26 18:11:51 CET 2018)
(GPL source distribution)
Java Runtime: OpenJDK Runtime Environment
JVM: OpenJDK 64-Bit Server VM
Java Version: 11.0.1+13
Operating System: Linux
OS Version: 4.19.4-arch1-1-ARCH
Default Encoding: UTF-8
Language: en
Country: US
--></g></svg>